<?xml version="1.0" encoding="UTF-8"?><svg id="Layer_2" xmlns="http://www.w3.org/2000/svg" viewBox="0 0 2919.44 2004.55"><defs><style>.cls-1,.cls-2{fill:#f7f6f4;}.cls-2{font-family:ManicDepression-Regular, ManicDepression;font-size:590.27px;font-variation-settings:'opsz' 500, 'wdth' 500;}</style></defs><g id="Layer_1-2"><path class="cls-1" d="M20.66,224.31H255v74.96H20.66v-74.96Zm0,150.52h60.21v144.62H20.66v-144.62Zm174.13-118.05h60.21v262.67h-60.21V256.77Zm80.87,42.5v-74.96h106.25v75.55l-106.25-.59Zm0,219.58v-74.37h106.25v74.96l-106.25-.59Zm46.04-262.08h60.8v262.67h-60.8V256.77Zm81.46-32.46h60.21v295.13h-60.21V224.31Zm80.86,220.17h191.84l-17.71,74.96h-174.13v-74.96Zm44.86-220.17h57.85V486.97h-57.85V224.31Zm146.98,148.16V224.31h57.85v174.13l-75.55,121h-65.52l83.23-146.98Zm140.48-148.16h60.21v295.13h-60.21V224.31Zm80.86,74.96v-74.96h106.25v75.55l-106.25-.59Zm0,219.58v-74.37h106.25v74.96l-106.25-.59Zm46.04-262.08h60.8v262.67h-60.8V256.77Zm81.46,42.5v-74.96h106.25v75.55l-106.25-.59Zm0,219.58v-74.37h106.25v74.96l-106.25-.59Zm46.04-262.08h60.8v262.67h-60.8V256.77Zm81.46-32.46h60.21v200.69h-60.21V224.31Zm80.86,54.3v-54.3h39.55l196.56,240.83v54.3h-39.55l-196.56-240.83Zm0,59.03l79.69,181.8h-79.69v-181.8Zm156.42-113.33h79.69v181.8l-79.69-181.8Zm162.32,0h60.21v295.13h-60.21V224.31Zm80.86,74.96v-74.96h106.25v75.55l-106.25-.59Zm0,219.58v-74.37h106.25v74.96l-106.25-.59Zm46.04-262.08h60.8v262.67h-60.8V256.77Zm81.46-32.46h215.45v74.96h-215.45v-74.96Zm0,220.17h247.91v74.96h-247.91v-74.96Zm155.24-187.7h60.21v259.72h-60.21V256.77Zm113.33-32.46h60.21v200.69h-60.21V224.31Zm80.86-29.51h60.21v104.48h-60.21v-104.48Zm0,29.51h236.11v74.96h-236.11v-74.96Zm26.56,220.17h133.99v74.96h-133.99v-74.96Zm149.34-72.01v-115.69h60.21v141.66l-75.55,121h-69.65l85-146.98Zm142.84-148.16h60.21v295.13h-60.21V224.31Zm0,0h234.34v74.96h-234.34v-74.96Zm0,220.17h234.34v74.96h-234.34v-74.96Zm174.13-187.7h60.21v262.67h-60.21V256.77Zm80.87,21.84v-54.3h39.55l196.56,240.83v54.3h-39.55l-196.56-240.83Zm0,59.03l79.69,181.8h-79.69v-181.8Zm156.42-113.33h79.69v181.8l-79.69-181.8Z"/><text class="cls-2" transform="translate(0 519.44)"><tspan x="0" y="0"> </tspan></text><path class="cls-1" d="M368.92,618.01h171.18v5.9h-171.18v-5.9Zm0,150.52h5.9v144.62h-5.9v-144.62Zm165.27-85.59h5.9v230.2h-5.9v-230.2Zm41.32-64.93h171.18v5.9h-171.18v-5.9Zm0,150.52h5.9v144.62h-5.9v-144.62Zm165.27-85.59h5.9v230.2h-5.9v-230.2Zm41.32-64.93h5.9v295.13h-5.9v-295.13Zm41.32,0h141.66v5.9h-141.66v-5.9Zm0,289.23h188.89v5.9h-188.89v-5.9Zm135.76-224.3h5.9v224.3h-5.9v-224.3Zm88.54,135.76l85.59-50.17-79.69,53.71v90.9h-5.9v-94.44Zm11.81-200.69h109.2v5.9h-109.2v-5.9Zm103.3,64.93h5.9v230.2h-5.9v-230.2Zm41.32-64.93h171.18v5.9h-171.18v-5.9Zm0,150.52h5.9v144.62h-5.9v-144.62Zm165.27-85.59h5.9v230.2h-5.9v-230.2Zm106.25-64.93h171.18v5.9h-171.18v-5.9Zm0,150.52h5.9v144.62h-5.9v-144.62Zm165.27-85.59h5.9v230.2h-5.9v-230.2Zm41.32-64.93h177.08v5.9h-177.08v-5.9Zm0,64.93h5.9v230.2h-5.9v-230.2Zm171.18,0h5.9v230.2h-5.9v-230.2Zm41.32-64.93h191.25v5.9h-191.25v-5.9Zm35.42,5.9h5.9l-41.32,289.23,35.42-289.23Zm52.53,283.33h103.3v5.9h-109.2l5.9-5.9Zm97.39-224.3h5.9v230.2h-5.9v-230.2Zm41.32-64.93h5.9v295.13h-5.9v-295.13Zm0,289.23h251.45v5.9h-251.45v-5.9Zm122.78-289.23h5.9v230.2h-5.9v-230.2Zm122.78,0h5.9v295.13h-5.9v-295.13Zm41.31-29.51h5.9v35.42h-5.9v-35.42Zm0,29.51h177.08v5.9h-177.08v-5.9Zm59.03,289.23h41.32v5.9h-41.32v-5.9Zm112.15-143.43v-80.87h5.9v82.64l-76.73,147.57h-6.49l77.32-149.34Z"/><text class="cls-2" transform="translate(333.5 913.14)"><tspan x="0" y="0"> </tspan></text><path class="cls-1" d="M599.12,1011.72h306.94v5.9h-306.94v-5.9Zm253.81,64.93h5.9v230.2h-5.9v-230.2Zm88.54-64.93h5.9v295.13h-5.9v-295.13Zm41.32,4.13v-4.13h4.13l291,291v4.13h-4.13l-291-291Zm0,108.61l5.9,182.39h-5.9v-182.39Zm289.23-112.74h5.9v182.39l-5.9-182.39Zm41.32,0h309.3v5.9h-309.3v-5.9Zm35.42,5.9h5.9l-41.32,289.23,35.42-289.23Zm111.56,283.33h162.32v5.9h-168.23l5.9-5.9Zm156.42-224.3h5.9v230.2h-5.9v-230.2Zm112.15-64.93h306.94v5.9h-306.94v-5.9Zm253.81,64.93h5.9v230.2h-5.9v-230.2Zm70.77,224.3h206.59v5.9h-206.59v-5.9Zm86.77-289.23h5.9v230.2h-5.9v-230.2Zm208.36,145.8v-145.8h5.9v147.57l-94.44,147.57h-7.08l95.62-149.34Z"/><path class="cls-1" d="M785.64,1405.43h234.34v74.96h-234.34v-74.96Zm0,150.52h60.21v144.62h-60.21v-144.62Zm174.13-118.05h60.21v262.67h-60.21v-262.67Zm80.87,42.5v-74.96h106.25v75.55l-106.25-.59Zm0,219.58v-74.37h106.25v74.96l-106.25-.59Zm46.04-262.08h60.8v262.67h-60.8v-262.67Zm81.46-32.46h60.21v295.13h-60.21v-295.13Zm80.86,220.17h191.84l-17.71,74.96h-174.13v-74.96Zm44.86-220.17h57.85v262.67h-57.85v-262.67Zm146.98,148.16v-148.16h57.85v174.13l-75.55,121h-65.52l83.23-146.98Zm140.48-93.85v-54.3h39.55l196.56,240.83v54.3h-39.55l-196.56-240.83Zm0,59.03l79.69,181.8h-79.69v-181.8Zm156.42-113.33h79.69v181.8l-79.69-181.8Zm100.34,0h60.21v295.13h-60.21v-295.13Zm80.86,0h234.34v74.96h-234.34v-74.96Zm0,150.52h60.21v144.62h-60.21v-144.62Zm174.13-118.05h60.21v262.67h-60.21v-262.67Z"/><text class="cls-2" transform="translate(764.98 1700.55)"><tspan x="0" y="0"> </tspan></text><path class="cls-1" d="M169.41,1709.42H464.54v144.62H169.41v-144.62Zm0,150.52h144.62v144.62H169.41v-144.62Zm150.52-150.52h144.62v295.13h-144.62v-295.13Zm150.51,0h144.62v295.13h-144.62v-295.13Zm150.52,0h289.23v144.62h-289.23v-144.62Zm0,150.52h306.94v144.62h-306.94v-144.62Zm144.62-150.52h144.62v295.13h-144.62v-295.13Zm168.23,200.69l94.44-50.17v144.62h-94.44v-94.44Zm17.71-200.69h227.25v144.62h-227.25v-144.62Zm82.64,0h144.62v295.13h-144.62v-295.13Zm150.52,0h295.13v144.62h-295.13v-144.62Zm0,150.52h144.62v144.62h-144.62v-144.62Zm150.52-150.52h144.62v295.13h-144.62v-295.13Zm209.54,0h289.23v144.62h-289.23v-144.62Zm0,150.52h306.94v144.62h-306.94v-144.62Zm144.62-150.52h144.62v295.13h-144.62v-295.13Zm168.23,104.48v-104.48h104.48l190.66,190.66v104.48h-104.48l-190.66-190.66Zm0,8.26l182.39,182.39h-182.39v-182.39Zm112.74-112.74h182.39v182.39l-182.39-182.39Zm188.29,0h295.13v144.62h-295.13v-144.62Zm0,150.52h295.13v144.62h-295.13v-144.62Zm150.52-150.52h144.62v295.13h-144.62v-295.13Zm150.51-29.51h144.62v174.13h-144.62v-174.13Zm0,29.51h295.13v144.62h-295.13v-144.62Zm0,150.52h200.69v144.62h-200.69v-144.62Zm150.52,0v-150.52h144.62v200.69l-94.44,94.44h-165.27l115.1-144.62Z"/></g></svg>