<?xml version="1.0" encoding="UTF-8"?><svg id="Layer_2" xmlns="http://www.w3.org/2000/svg" viewBox="0 0 524.8 500.75"><defs><style>.cls-1{opacity:.19;}.cls-2{opacity:.35;}.cls-3{opacity:.68;}.cls-4{opacity:.51;}.cls-5{opacity:.84;}.cls-6{fill:none;stroke:#f7f6f4;stroke-width:.75px;}</style></defs><g id="Layer_1-2"><g class="cls-1"><polygon class="cls-6" points="524.42 .38 524.42 500.38 170.42 500.38 249.42 255.38 279.42 255.38 279.42 245.38 242.42 245.38 159.42 500.38 .42 500.38 30.42 245.38 .42 245.38 .42 .38 524.42 .38"/></g><g class="cls-2"><polygon class="cls-6" points="524.42 .38 524.42 500.38 184.42 500.38 249.42 302.38 326.42 302.38 326.42 198.38 208.42 198.38 127.42 500.38 .42 500.38 36.42 198.38 .42 198.38 .42 .38 524.42 .38"/></g><g class="cls-4"><polygon class="cls-6" points="524.42 .38 524.42 500.38 198.42 500.38 249.42 349.38 373.42 349.38 373.42 151.38 173.42 151.38 95.42 500.38 .42 500.38 42.42 151.38 .42 151.38 .42 .38 524.42 .38"/></g><g class="cls-3"><polygon class="cls-6" points="524.42 .38 524.42 500.38 212.42 500.38 249.42 396.38 420.42 396.38 420.42 104.38 139.42 104.38 63.42 500.38 .42 500.38 48.42 104.38 .42 104.38 .42 .38 524.42 .38"/></g><g class="cls-5"><polygon class="cls-6" points="524.42 88.38 524.42 500.38 225.42 500.38 249.42 443.38 467.42 443.38 467.42 88.38 524.42 88.38"/><polygon class="cls-6" points="524.42 .38 524.42 57.38 104.42 57.38 32.42 500.38 .42 500.38 54.42 57.38 .42 57.38 .42 .38 524.42 .38"/></g><g><polygon class="cls-6" points="524.42 110.38 524.42 500.38 239.42 500.38 249.42 490.38 514.42 490.38 514.42 110.38 524.42 110.38"/><polygon class="cls-6" points="524.42 .38 524.42 10.38 70.42 10.38 .42 500.38 60.42 10.38 .42 10.38 .42 .38 524.42 .38"/></g></g></svg>